#N canvas 795 72 1223 848 12;
#X msg 56 116 \; pd dsp \$1;
#X obj 56 72 tgl 15 0 empty empty empty 17 7 0 10 -262144 -1 -1 0 1
;
#X obj 633 241 vsl 15 128 0 22000 0 0 empty empty Hz 0 -8 0 8 -262144
-1 -1 0 1;
#N canvas 0 22 458 308 DAC_l 0;
#X obj 175 248 dac~;
#X obj 175 205 *~;
#X obj 194 172 inlet~;
#X obj 234 205 *~;
#X obj 253 172 inlet~;
#X obj 175 61 inlet;
#X obj 175 126 lop~ 5;
#X connect 1 0 0 0;
#X connect 2 0 1 1;
#X connect 3 0 0 1;
#X connect 4 0 3 1;
#X connect 5 0 6 0;
#X connect 6 0 1 0;
#X connect 6 0 3 0;
#X restore 519 362 pd DAC_l;
#X obj 572 292 osc~;
#X obj 516 112 line;
#X obj 516 -37 r Vol;
#X obj 573 -37 r Hz;
#X floatatom 435 187 10 0 0 0 - - -;
#X obj 434 243 vsl 15 128 0 1 0 0 empty empty vol 0 -8 0 8 -262144
-1 -1 0 1;
#X obj 572 112 line;
#X floatatom 633 188 10 0 0 0 - - -;
#X obj 77 -16 OSC;
#X msg 77 -40 version;
#X obj 124 10 print;
#X obj 375 76 print unmatch;
#X obj 175 119 send Hz;
#X floatatom 275 77 5 0 100 0 - - -;
#X obj 275 118 send Vol;
#X floatatom 175 75 5 0 0 0 - - -;
#X obj 175 -40 dumpOSC 8888;
#X obj 175 12 OSCroute /init /temperature /switch;
#X msg 528 45 5000;
#X msg 584 44 5000;
#X connect 1 0 0 0;
#X connect 4 0 3 1;
#X connect 5 0 8 0;
#X connect 5 0 3 0;
#X connect 6 0 22 0;
#X connect 6 0 5 0;
#X connect 7 0 10 0;
#X connect 7 0 23 0;
#X connect 8 0 9 0;
#X connect 10 0 11 0;
#X connect 10 0 4 0;
#X connect 11 0 2 0;
#X connect 13 0 12 0;
#X connect 17 0 18 0;
#X connect 19 0 16 0;
#X connect 20 0 14 0;
#X connect 20 0 21 0;
#X connect 21 0 1 0;
#X connect 21 1 19 0;
#X connect 21 2 17 0;
#X connect 21 3 15 0;
#X connect 22 0 5 1;
#X connect 23 0 10 1;
